<svg height="511pt" viewBox="0 -15 511.99954 511" width="511pt" xmlns="http://www.w3.org/2000/svg"><path d="m206.332031 176.390625h-153c-29.453125 0-53.332031-23.878906-53.332031-53.332031v-71.253906c0-28.335938 22.96875-51.304688 51.304688-51.304688h155.027343zm0 0" fill="#f4e74d"/><path d="m0 51.804688v48.914062h206.332031v-100.21875h-155.027343c-28.335938 0-51.304688 22.96875-51.304688 51.304688zm0 0" fill="#dfca00"/><path d="m206.332031 306.113281h-153c-29.453125 0-53.332031 23.878907-53.332031 53.332031v71.257813c0 28.332031 22.96875 51.300781 51.304688 51.300781h155.027343zm0 0" fill="#f4e74d"/><path d="m0 430.703125v-48.917969h206.332031v100.21875h-155.027343c-28.335938 0-51.304688-22.96875-51.304688-51.300781zm0 0" fill="#dfca00"/><path d="m388.097656.5h-336.792968c28.332031 0 51.300781 22.96875 51.300781 51.304688v378.898437c0 28.332031-22.96875 51.300781-51.300781 51.300781h336.792968c28.335938 0 51.304688-22.96875 51.304688-51.300781v-378.898437c0-28.335938-22.96875-51.304688-51.304688-51.304688zm0 0" fill="#fcf5af"/><path d="m462.960938 224.46875 34.726562-19.570312c7.539062-4.253907 12.425781-12 13.09375-20.632813 2.585938-33.515625.625-63.84375-1.882812-85.542969-1.875-16.238281-21.046876-24.027344-33.605469-13.558594-115.605469 96.382813-87.566407 268.871094-87.566407 268.871094h31.429688s29.234375-29.628906 48.917969-46.011718c17.09375-14.222657 24.765625-37.332032 24.816406-37.472657 3.863281-10.597656.5-22.476562-8.414063-29.390625zm0 0" fill="#e7896e"/><path d="m387.453125 261.285156c-6.269531 52.488282.273437 92.75.273437 92.75h31.429688s28.394531-28.78125 48.0625-45.292968c-39.398438-9.824219-64.722656-30.421876-79.765625-47.457032zm0 0" fill="#dd6642"/><path d="m450.390625 365.980469h-92.9375l-18.757813 23.132812c-8.714843 10.75-13.472656 24.167969-13.472656 38.007813v26.882812c0 15.464844 12.535156 28 28 28h101.390625c15.464844 0 28.003907-12.535156 28.003907-28v-26.882812c0-13.839844-4.757813-27.257813-13.476563-38.007813zm0 0" fill="#76e7e7"/><path d="m403.921875 427.125c27.507813-13.96875 39.011719-44.6875 39.011719-44.6875v-16.457031h-85.480469l-18.757813 23.132812c-8.714843 10.75-13.472656 24.167969-13.472656 38.007813v26.882812c0 15.464844 12.535156 28 28 28h34.394532c-6.375-19.125-3.371094-44.890625 16.304687-54.878906zm0 0" fill="#2eddda"/><path d="m442.933594 382.4375h-78.027344c-14.574219 0-26.390625-11.8125-26.390625-26.390625 0-14.574219 11.816406-26.390625 26.390625-26.390625h78.027344c14.574218 0 26.390625 11.816406 26.390625 26.390625 0 14.578125-11.816407 26.390625-26.390625 26.390625zm0 0" fill="#b0f0ef"/><path d="m384.734375 356.046875c0-14.574219 11.816406-26.390625 26.390625-26.390625h-46.21875c-14.574219 0-26.390625 11.816406-26.390625 26.390625s11.816406 26.390625 26.390625 26.390625h46.21875c-14.574219 0-26.390625-11.8125-26.390625-26.390625zm0 0" fill="#76e7e7"/><g fill="#8697a6"><path d="m325.222656 427.125v26.878906c0 15.464844 12.539063 28 28.003906 28h101.390626c15.464843 0 28-12.535156 28-28v-26.878906zm0 0"/><path d="m376.398438 100.71875h-210.230469c-8.613281 0-15.59375-6.984375-15.59375-15.59375 0-8.613281 6.980469-15.597656 15.59375-15.597656h210.230469c8.613281 0 15.59375 6.984375 15.59375 15.597656s-6.980469 15.59375-15.59375 15.59375zm0 0"/><path d="m376.398438 167.550781h-210.230469c-8.613281 0-15.59375-6.984375-15.59375-15.597656s6.980469-15.59375 15.59375-15.59375h210.230469c8.613281 0 15.59375 6.984375 15.59375 15.59375 0 8.613281-6.980469 15.597656-15.59375 15.597656zm0 0"/><path d="m287.152344 234.378906h-120.984375c-8.613281 0-15.59375-6.980468-15.59375-15.59375 0-8.613281 6.980469-15.59375 15.59375-15.59375h120.984375c8.613281 0 15.597656 6.980469 15.597656 15.59375 0 8.613282-6.984375 15.59375-15.597656 15.59375zm0 0"/></g><path d="m325.222656 454.003906c0 15.464844 12.539063 28 28.003906 28h34.394532c-6.378906-19.125-3.375-44.890625 16.300781-54.878906h-78.699219zm0 0" fill="#6b7d8e"/></svg>